<svg width="500" height="500" viewBox="0 0 500 500" fill="none" xmlns="http://www.w3.org/2000/svg">
<g clip-path="url(#clip0_135_246)">
<path d="M550 -50H-50V550H550V-50Z" fill="white"/>
<path d="M550 -50H-50V550H550V-50Z" fill="white"/>
<path d="M550 -50H-50V550H550V-50Z" fill="white"/>
<path d="M178.693 249.141C178 250.214 177.057 249.365 177.656 248.427C199.839 213.776 213.75 260.781 258.339 256.833C326.99 250.76 384.38 231.37 427.094 248.063C430.073 249.229 427.974 251.672 425.469 250.531C389.917 234.37 323.875 251.292 258.042 258.146C213.432 262.786 200.823 215.057 178.693 249.141Z" fill="black"/>
<path d="M87.276 273.958C91.8385 262.198 101.437 240.359 107.677 241.562C111.755 242.359 105.115 257.802 105.276 268.599C105.354 273.161 108.958 276.12 114.234 272.198C121.437 266.839 129.839 253.958 134.234 248.198C134.234 247.802 133.198 247.802 132.875 248.12C129.437 252.521 119.594 267.161 112.797 271.802C109.594 273.958 108.719 272.521 109.354 267.318C110.474 258.042 116.078 242.521 107.995 240.521C101.839 239 94.1562 253.562 87.276 270.521C88.4739 260.042 89.8385 246.359 90.6354 243.161C116.797 213.802 112.557 198.521 104.474 198.521C89.9948 198.521 83.276 238.281 81.7552 274.359C81.7552 277.479 86.3177 277.078 87.276 273.958ZM90.875 241.078C93.0364 221.719 98.875 200.12 104.078 199.719C110.875 199.161 114.875 212.437 90.875 241.078Z" fill="black"/>
<path d="M144.396 253.958C143.677 254.682 150.959 258.437 150.959 258.437C145.438 264.838 144.636 279.161 153.198 279.479C159.037 279.958 166.157 267.318 178.636 248.281C179.037 247.719 178.078 247.401 177.115 248.198C165.516 266.042 157.516 278.682 153.438 278.437C147.354 278.042 156.714 259.479 153.516 258.198L146.396 254.359C157.995 253.641 161.198 239.958 156.396 237.479C151.198 235.161 144.714 243.562 136.078 258.042C136.714 253.479 137.354 247.958 137.917 244.437C164.078 215.078 160.157 198.198 152.078 198.521C134.636 199.24 131.594 252.76 129.438 273C129.276 275.802 133.917 276.281 134.318 273L135.756 260.521C147.276 241 152.558 237.401 155.354 238.281C159.995 239.719 150.396 248.198 144.396 253.958ZM138.157 242.359C140.318 223 146.474 200.12 151.677 199.719C158.474 199.161 162.157 213.719 138.157 242.359Z" fill="black"/>
</g>
<defs>
<clipPath id="clip0_135_246">
<rect width="500" height="500" fill="white"/>
</clipPath>
</defs>
</svg>
